<?xml version="1.0" encoding="UTF-8"?>
<svg id="_レイヤー_1" data-name="レイヤー 1" xmlns="http://www.w3.org/2000/svg" viewBox="0 0 416.54 62.44">
  <path d="M30.08,28.24h25.69v24.38c-5.79,6.05-15.17,9.82-23.94,9.82C14.56,62.44,0,48.14,0,31.22S14.56.09,31.83.09c8.77,0,18.15,3.68,23.94,9.73l-7.8,7.28c-3.77-4.38-10.26-7.01-16.13-7.01-11.22,0-20.7,9.65-20.7,21.13s9.47,21.22,20.7,21.22c4.56,0,9.47-1.58,13.24-4.3v-10.96h-14.99v-8.94Z"/>
  <path d="M68.23,1.14h21.22c19.91,0,33.94,12.45,33.94,30.08s-14.03,30.17-33.94,30.17h-21.22V1.14ZM90.59,51.47c12.72,0,21.66-8.42,21.66-20.26s-8.94-20.17-21.66-20.17h-11.4v40.43h11.4Z"/>
  <path d="M130.66,52.61l6.31-7.8c5.52,5,11.93,8.16,19.82,8.16,7.45,0,11.31-3.68,11.31-7.98,0-5-4.3-6.66-13.94-8.94-12.45-2.89-21.13-6.49-21.13-17.8,0-10.52,8.94-18.24,21.66-18.24,9.56,0,16.75,3.24,22.8,8.42l-5.96,8.07c-5.26-4.56-11.31-7.1-17.28-7.1s-10.17,3.68-10.17,7.89c0,4.91,4.47,6.66,14.03,8.86,12.54,2.81,20.96,6.84,20.96,17.8s-8.24,18.42-22.62,18.42c-10.35,0-19.12-3.51-25.78-9.73Z"/>
  <path d="M187.4,31.22C187.4,14.29,201.52.09,218.27.09s30.78,14.21,30.78,31.13-14.03,31.22-30.78,31.22-30.87-14.29-30.87-31.22ZM245.89,31.22c0-15.17-12.63-27.97-27.62-27.97s-27.71,12.8-27.71,27.97,12.63,28.06,27.71,28.06,27.62-12.8,27.62-28.06Z"/>
  <path d="M260.53,1.14h25.34c12.19,0,20.87,7.63,20.87,18.41s-8.68,18.42-20.87,18.42h-22.19v23.41h-3.16V1.14ZM285.26,34.81c10.7,0,18.33-6.31,18.33-15.26s-7.63-15.26-18.33-15.26h-21.57v30.52h21.57Z"/>
  <path d="M319.73,4.3v24.82h33.67v3.16h-33.67v25.96h36.39v3.16h-39.55V1.14h39.55v3.16h-36.39Z"/>
  <path d="M369.19,1.14h3.16l41.04,55.33V1.14h3.16v60.24h-3.16l-41.04-55.33v55.33h-3.16V1.14Z"/>
</svg>